<svg width="32" height="32" viewBox="0 0 32 32" fill="none" xmlns="http://www.w3.org/2000/svg">
<rect x="0.5" y="0.5" width="31" height="31" fill="#FED550"/>
<rect x="0.5" y="0.5" width="31" height="31" stroke="#18181A"/>
<path d="M9.0042 19.1203H7.16859V13.0834H5.04631V19.1203H3.21069V4.31177H5.04631V9.80166H7.16859V4.31177H9.0042V19.1203Z" fill="#18181A"/>
<path d="M13.6176 19.1203H9.60425V4.31177H13.6176V7.52264H11.4306V9.8523H13.4558V13.0632H11.4306V15.8588H13.6176V19.1203Z" fill="#18181A"/>
<path d="M21.0193 19.1203H18.9062L17.5885 14.4914L16.2846 19.1203H14.2178L16.4603 11.5438L14.3519 4.31177H16.377L17.5977 8.89005L18.7721 4.31177H20.8574L18.7166 11.8578L21.0193 19.1203Z" fill="#18181A"/>
<path d="M21.6191 19.1203V4.31177H23.4548V19.1203H21.6191Z" fill="#18181A"/>
<path d="M28.7894 14.6281C28.7894 15.4317 28.6969 16.1947 28.5119 16.9172C28.327 17.633 28.0388 18.2137 27.6473 18.6594C27.2589 19.1051 26.7565 19.3279 26.14 19.3279C25.8317 19.3279 25.5605 19.2975 25.3262 19.2368C25.095 19.176 24.8793 19.0781 24.6789 18.943C24.4785 18.8012 24.2705 18.6189 24.0547 18.3961V14.8307C24.4215 15.2358 24.7914 15.5465 25.1644 15.7625C25.5374 15.9719 25.8749 16.0765 26.177 16.0765C26.3588 16.0765 26.5068 16.0293 26.6208 15.9347C26.738 15.8402 26.8243 15.7119 26.8798 15.5498C26.9353 15.381 26.963 15.1886 26.963 14.9725C26.963 14.7159 26.9214 14.4998 26.8382 14.3242C26.758 14.1419 26.6286 13.9528 26.4498 13.757C26.271 13.5612 26.0352 13.3181 25.7423 13.0277C25.4927 12.7711 25.2661 12.5078 25.0627 12.2377C24.8623 11.9676 24.6897 11.6603 24.5448 11.3159C24.403 10.9648 24.2936 10.5563 24.2165 10.0903C24.1395 9.6244 24.1009 9.07406 24.1009 8.43931C24.1009 7.48719 24.2073 6.69038 24.42 6.04888C24.6357 5.40063 24.9347 4.91444 25.317 4.59032C25.7023 4.26619 26.1461 4.10413 26.6486 4.10413C27.0894 4.10413 27.4855 4.21217 27.8369 4.42825C28.1914 4.64434 28.5089 4.89081 28.7894 5.16767L28.2299 8.25699C27.9401 7.96663 27.655 7.73704 27.3745 7.56823C27.094 7.39266 26.8335 7.30487 26.5931 7.30487C26.4359 7.30487 26.3064 7.34876 26.2047 7.43655C26.1061 7.51758 26.0321 7.629 25.9828 7.7708C25.9365 7.91261 25.9134 8.07467 25.9134 8.25699C25.9134 8.48658 25.9535 8.69254 26.0336 8.87486C26.1169 9.05718 26.254 9.25638 26.4451 9.47247C26.6393 9.6818 26.9029 9.95528 27.2358 10.2929C27.5656 10.617 27.8461 10.9682 28.0773 11.3463C28.3085 11.7177 28.4842 12.1668 28.6044 12.6935C28.7277 13.2134 28.7894 13.8583 28.7894 14.6281Z" fill="#18181A"/>
<path d="M23.9429 27.8958V21.5278H24.2667V27.8958H23.9429ZM25.238 27.8958V21.5278H25.5618V27.8958H25.238ZM25.8856 27.8958V21.5278H26.857V27.8958H25.8856ZM27.1808 27.8958V21.5278H28.1522V27.8958H27.1808ZM28.476 27.8958V21.5278H28.7998V27.8958H28.476Z" fill="#18181A"/>
<path d="M18.7571 27.8958V21.5278H19.0809V27.8958H18.7571ZM19.4047 27.8958V21.5278H20.3761V27.8958H19.4047ZM20.6998 27.8958V21.5278H21.0236V27.8958H20.6998ZM21.3474 27.8958V21.5278H22.3188V27.8958H21.3474ZM23.2902 27.8958V21.5278H23.614V27.8958H23.2902Z" fill="#18181A"/>
<path d="M13.5713 27.8958V21.5278H13.8951V27.8958H13.5713ZM14.8665 27.8958V21.5278H15.1903V27.8958H14.8665ZM15.5141 27.8958V21.5278H16.4854V27.8958H15.5141ZM16.8092 27.8958V21.5278H17.133V27.8958H16.8092ZM17.4568 27.8958V21.5278H18.4282V27.8958H17.4568Z" fill="#18181A"/>
<path d="M8.3855 27.8958V21.5278H9.35688V27.8958H8.3855ZM9.68068 27.8958V21.5278H10.0045V27.8958H9.68068ZM10.3283 27.8958V21.5278H10.6521V27.8958H10.3283ZM11.6234 27.8958V21.5278H12.5948V27.8958H11.6234ZM12.9186 27.8958V21.5278H13.2424V27.8958H12.9186Z" fill="#18181A"/>
<path d="M3.19995 27.8959V21.5279H3.52375V27.8959H3.19995ZM4.49513 27.8959V21.5279H4.81892V27.8959H4.49513ZM5.14272 27.8959V21.5279H6.1141V27.8959H5.14272ZM6.4379 27.8959V21.5279H7.40928V27.8959H6.4379ZM7.73308 27.8959V21.5279H8.05687V27.8959H7.73308Z" fill="#18181A"/>
</svg>
