<svg width="16" height="16" viewBox="0 0 16 16" fill="none" xmlns="http://www.w3.org/2000/svg">
<rect x="0.5" y="0.5" width="15" height="15" fill="#FED550"/>
<rect x="0.5" y="0.5" width="15" height="15" stroke="#18181A"/>
<path d="M4.50198 9.56014H3.58417V6.54172H2.52303V9.56014H1.60522V2.15588H2.52303V4.90083H3.58417V2.15588H4.50198V9.56014Z" fill="#18181A"/>
<path d="M6.80869 9.56014H4.802V2.15588H6.80869V3.76132H5.71518V4.92615H6.72778V6.53159H5.71518V7.92938H6.80869V9.56014Z" fill="#18181A"/>
<path d="M10.5096 9.56014H9.45311L8.79423 7.24568L8.14229 9.56014H7.10889L8.23014 5.77192L7.17593 2.15588H8.18852L8.79885 4.44503L9.38606 2.15588H10.4287L9.35832 5.92892L10.5096 9.56014Z" fill="#18181A"/>
<path d="M10.8096 9.56014V2.15588H11.7274V9.56014H10.8096Z" fill="#18181A"/>
<path d="M14.3947 7.31405C14.3947 7.71583 14.3484 8.09735 14.256 8.45862C14.1635 8.81651 14.0194 9.10687 13.8237 9.32971C13.6295 9.55255 13.3782 9.66396 13.07 9.66396C12.9159 9.66396 12.7802 9.64877 12.6631 9.61838C12.5475 9.588 12.4396 9.53904 12.3394 9.47151C12.2393 9.40061 12.1352 9.30945 12.0273 9.19803V7.41534C12.2108 7.61792 12.3957 7.77323 12.5822 7.88127C12.7687 7.98594 12.9374 8.03827 13.0885 8.03827C13.1794 8.03827 13.2534 8.01463 13.3104 7.96737C13.369 7.9201 13.4121 7.85595 13.4399 7.77492C13.4676 7.69051 13.4815 7.59428 13.4815 7.48624C13.4815 7.35794 13.4607 7.2499 13.4191 7.16212C13.379 7.07096 13.3143 6.97642 13.2249 6.87851C13.1355 6.78059 13.0176 6.65904 12.8712 6.51386C12.7463 6.38556 12.633 6.25389 12.5313 6.11883C12.4311 5.98378 12.3448 5.83016 12.2724 5.65797C12.2015 5.4824 12.1468 5.27813 12.1083 5.04517C12.0697 4.8122 12.0505 4.53703 12.0505 4.21966C12.0505 3.7436 12.1036 3.34519 12.21 3.02444C12.3179 2.70032 12.4674 2.45722 12.6585 2.29516C12.8511 2.13309 13.0731 2.05206 13.3243 2.05206C13.5447 2.05206 13.7427 2.10608 13.9184 2.21413C14.0957 2.32217 14.2544 2.4454 14.3947 2.58383L14.1149 4.1285C13.9701 3.98331 13.8275 3.86852 13.6873 3.78411C13.547 3.69633 13.4168 3.65244 13.2966 3.65244C13.2179 3.65244 13.1532 3.67438 13.1024 3.71827C13.053 3.75879 13.016 3.8145 12.9914 3.8854C12.9683 3.9563 12.9567 4.03734 12.9567 4.1285C12.9567 4.24329 12.9767 4.34627 13.0168 4.43743C13.0584 4.52859 13.127 4.62819 13.2226 4.73623C13.3197 4.8409 13.4514 4.97764 13.6179 5.14646C13.7828 5.30852 13.9231 5.48409 14.0387 5.67316C14.1543 5.85886 14.2421 6.08338 14.3022 6.34674C14.3639 6.60671 14.3947 6.92915 14.3947 7.31405Z" fill="#18181A"/>
<path d="M11.9714 13.9479V10.7639H12.1333V13.9479H11.9714ZM12.619 13.9479V10.7639H12.7809V13.9479H12.619ZM12.9428 13.9479V10.7639H13.4285V13.9479H12.9428ZM13.5904 13.9479V10.7639H14.0761V13.9479H13.5904ZM14.238 13.9479V10.7639H14.3999V13.9479H14.238Z" fill="#18181A"/>
<path d="M9.37866 13.9479V10.7639H9.54056V13.9479H9.37866ZM9.70246 13.9479V10.7639H10.1881V13.9479H9.70246ZM10.35 13.9479V10.7639H10.5119V13.9479H10.35ZM10.6738 13.9479V10.7639H11.1595V13.9479H10.6738ZM11.6452 13.9479V10.7639H11.8071V13.9479H11.6452Z" fill="#18181A"/>
<path d="M6.78564 13.9479V10.7639H6.94754V13.9479H6.78564ZM7.43323 13.9479V10.7639H7.59513V13.9479H7.43323ZM7.75703 13.9479V10.7639H8.24272V13.9479H7.75703ZM8.40462 13.9479V10.7639H8.56652V13.9479H8.40462ZM8.72841 13.9479V10.7639H9.21411V13.9479H8.72841Z" fill="#18181A"/>
<path d="M4.19287 13.9479V10.7639H4.67856V13.9479H4.19287ZM4.84046 13.9479V10.7639H5.00236V13.9479H4.84046ZM5.16426 13.9479V10.7639H5.32615V13.9479H5.16426ZM5.81184 13.9479V10.7639H6.29754V13.9479H5.81184ZM6.45943 13.9479V10.7639H6.62133V13.9479H6.45943Z" fill="#18181A"/>
<path d="M1.6001 13.9479V10.7639H1.762V13.9479H1.6001ZM2.24769 13.9479V10.7639H2.40958V13.9479H2.24769ZM2.57148 13.9479V10.7639H3.05717V13.9479H2.57148ZM3.21907 13.9479V10.7639H3.70476V13.9479H3.21907ZM3.86666 13.9479V10.7639H4.02856V13.9479H3.86666Z" fill="#18181A"/>
</svg>
