<svg width="1024" height="32" viewBox="0 0 1024 32" fill="none" xmlns="http://www.w3.org/2000/svg">
<path d="M1001.13 32V0H1002.66V32H1001.13ZM1004.18 32V0H1005.7V32H1004.18ZM1010.28 32V0H1011.8V32H1010.28ZM1013.33 32V0H1017.9V32H1013.33ZM1019.43 32V0H1024V32H1019.43Z" fill="#18181A"/>
<path d="M976.713 32V0H981.287V32H976.713ZM982.811 32V0H984.336V32H982.811ZM985.861 32V0H990.434V32H985.861ZM995.008 32V0H996.533V32H995.008ZM998.057 32V0H999.582V32H998.057Z" fill="#18181A"/>
<path d="M952.295 32V0H956.869V32H952.295ZM958.393 32V0H959.918V32H958.393ZM964.492 32V0H966.017V32H964.492ZM967.541 32V0H972.115V32H967.541ZM973.64 32V0H975.164V32H973.64Z" fill="#18181A"/>
<path d="M927.877 32V0H932.451V32H927.877ZM933.976 32V0H938.55V32H933.976ZM943.123 32V0H944.648V32H943.123ZM946.173 32V0H947.697V32H946.173ZM949.222 32V0H950.746V32H949.222Z" fill="#18181A"/>
<path d="M903.459 32V0H908.033V32H903.459ZM909.558 32V0H911.082V32H909.558ZM915.656 32V0H917.181V32H915.656ZM918.706 32V0H920.23V32H918.706ZM921.755 32V0H926.329V32H921.755Z" fill="#18181A"/>
<path d="M879.042 32V0H880.566V32H879.042ZM882.091 32V0H883.615V32H882.091ZM888.189 32V0H892.763V32H888.189ZM894.288 32V0H898.862V32H894.288ZM900.386 32V0H901.911V32H900.386Z" fill="#18181A"/>
<path d="M854.624 32V0H859.198V32H854.624ZM860.722 32V0H862.247V32H860.722ZM866.821 32V0H868.345V32H866.821ZM869.87 32V0H871.395V32H869.87ZM872.919 32V0H877.493V32H872.919Z" fill="#18181A"/>
<path d="M830.206 32V0H834.78V32H830.206ZM836.304 32V0H840.878V32H836.304ZM842.403 32V0H843.928V32H842.403ZM848.501 32V0H850.026V32H848.501ZM851.551 32V0H853.075V32H851.551Z" fill="#18181A"/>
<path d="M805.788 32V0H807.313V32H805.788ZM808.837 32V0H810.362V32H808.837ZM814.936 32V0H816.46V32H814.936ZM817.985 32V0H822.559V32H817.985ZM824.084 32V0H828.657V32H824.084Z" fill="#18181A"/>
<path d="M781.37 32V0H785.944V32H781.37ZM787.469 32V0H788.993V32H787.469ZM793.567 32V0H798.141V32H793.567ZM799.666 32V0H801.19V32H799.666ZM802.715 32V0H804.24V32H802.715Z" fill="#18181A"/>
<path d="M756.952 32V0H758.477V32H756.952ZM760.002 32V0H764.576V32H760.002ZM766.1 32V0H767.625V32H766.1ZM772.199 32V0H773.723V32H772.199ZM775.248 32V0H779.822V32H775.248Z" fill="#18181A"/>
<path d="M732.535 32V0H734.059V32H732.535ZM735.584 32V0H737.108V32H735.584ZM741.682 32V0H746.256V32H741.682ZM747.781 32V0H749.305V32H747.781ZM750.83 32V0H755.404V32H750.83Z" fill="#18181A"/>
<path d="M708.117 32V0H712.691V32H708.117ZM714.215 32V0H715.74V32H714.215ZM720.314 32V0H724.888V32H720.314ZM726.412 32V0H727.937V32H726.412ZM729.461 32V0H730.986V32H729.461Z" fill="#18181A"/>
<path d="M683.699 32V0H685.224V32H683.699ZM686.748 32V0H688.273V32H686.748ZM692.847 32V0H697.421V32H692.847ZM698.945 32V0H703.519V32H698.945ZM705.044 32V0H706.568V32H705.044Z" fill="#18181A"/>
<path d="M659.281 32V0H660.806V32H659.281ZM662.33 32V0H666.904V32H662.33ZM671.478 32V0H673.003V32H671.478ZM674.527 32V0H679.101V32H674.527ZM680.626 32V0H682.15V32H680.626Z" fill="#18181A"/>
<path d="M634.863 32V0H639.437V32H634.863ZM640.962 32V0H645.536V32H640.962ZM650.11 32V0H651.634V32H650.11ZM653.159 32V0H654.683V32H653.159ZM656.208 32V0H657.733V32H656.208Z" fill="#18181A"/>
<path d="M610.445 32V0H611.97V32H610.445ZM613.495 32V0H615.019V32H613.495ZM619.593 32V0H624.167V32H619.593ZM625.692 32V0H627.216V32H625.692ZM628.741 32V0H633.315V32H628.741Z" fill="#18181A"/>
<path d="M586.028 32V0H587.552V32H586.028ZM589.077 32V0H590.602V32H589.077ZM595.175 32V0H599.749V32H595.175ZM601.274 32V0H605.848V32H601.274ZM607.372 32V0H608.897V32H607.372Z" fill="#18181A"/>
<path d="M561.61 32V0H563.134V32H561.61ZM564.659 32V0H566.184V32H564.659ZM570.758 32V0H575.331V32H570.758ZM576.856 32V0H578.381V32H576.856ZM579.905 32V0H584.479V32H579.905Z" fill="#18181A"/>
<path d="M537.192 32V0H538.717V32H537.192ZM540.241 32V0H544.815V32H540.241ZM549.389 32V0H550.914V32H549.389ZM552.438 32V0H553.963V32H552.438ZM555.488 32V0H560.061V32H555.488Z" fill="#18181A"/>
<path d="M512.774 32V0H514.299V32H512.774ZM515.823 32V0H520.397V32H515.823ZM524.971 32V0H529.545V32H524.971ZM531.07 32V0H532.594V32H531.07ZM534.119 32V0H535.644V32H534.119Z" fill="#18181A"/>
<path d="M488.356 32V0H489.881V32H488.356ZM491.406 32V0H495.979V32H491.406ZM500.553 32V0H502.078V32H500.553ZM503.603 32V0H505.127V32H503.603ZM506.652 32V0H511.226V32H506.652Z" fill="#18181A"/>
<path d="M463.939 32V0H468.512V32H463.939ZM470.037 32V0H471.562V32H470.037ZM476.136 32V0H477.66V32H476.136ZM479.185 32V0H480.709V32H479.185ZM482.234 32V0H486.808V32H482.234Z" fill="#18181A"/>
<path d="M439.521 32V0H444.095V32H439.521ZM445.619 32V0H450.193V32H445.619ZM451.718 32V0H453.242V32H451.718ZM457.816 32V0H459.341V32H457.816ZM460.865 32V0H462.39V32H460.865Z" fill="#18181A"/>
<path d="M415.103 32V0H419.677V32H415.103ZM421.201 32V0H422.726V32H421.201ZM427.3 32V0H431.874V32H427.3ZM433.398 32V0H434.923V32H433.398ZM436.448 32V0H437.972V32H436.448Z" fill="#18181A"/>
<path d="M390.685 32V0H392.21V32H390.685ZM393.734 32V0H398.308V32H393.734ZM399.833 32V0H401.357V32H399.833ZM405.931 32V0H407.456V32H405.931ZM408.981 32V0H413.554V32H408.981Z" fill="#18181A"/>
<path d="M366.267 32V0H370.841V32H366.267ZM372.366 32V0H373.89V32H372.366ZM378.464 32V0H383.038V32H378.464ZM384.563 32V0H386.087V32H384.563ZM387.612 32V0H389.137V32H387.612Z" fill="#18181A"/>
<path d="M341.849 32V0H343.374V32H341.849ZM344.899 32V0H349.473V32H344.899ZM350.997 32V0H352.522V32H350.997ZM357.096 32V0H358.62V32H357.096ZM360.145 32V0H364.719V32H360.145Z" fill="#18181A"/>
<path d="M317.432 32V0H322.005V32H317.432ZM323.53 32V0H328.104V32H323.53ZM329.629 32V0H331.153V32H329.629ZM335.727 32V0H337.252V32H335.727ZM338.776 32V0H340.301V32H338.776Z" fill="#18181A"/>
<path d="M293.014 32V0H297.588V32H293.014ZM299.112 32V0H300.637V32H299.112ZM305.211 32V0H306.735V32H305.211ZM308.26 32V0H312.834V32H308.26ZM314.359 32V0H315.883V32H314.359Z" fill="#18181A"/>
<path d="M268.596 32V0H273.17V32H268.596ZM274.694 32V0H276.219V32H274.694ZM280.793 32V0H282.318V32H280.793ZM283.842 32V0H288.416V32H283.842ZM289.941 32V0H291.465V32H289.941Z" fill="#18181A"/>
<path d="M244.178 32V0H248.752V32H244.178ZM250.277 32V0H251.801V32H250.277ZM256.375 32V0H257.9V32H256.375ZM259.424 32V0H263.998V32H259.424ZM265.523 32V0H267.048V32H265.523Z" fill="#18181A"/>
<path d="M219.76 32V0H224.334V32H219.76ZM225.859 32V0H227.383V32H225.859ZM228.908 32V0H233.482V32H228.908ZM238.056 32V0H239.58V32H238.056ZM241.105 32V0H242.63V32H241.105Z" fill="#18181A"/>
<path d="M195.343 32V0H196.867V32H195.343ZM198.392 32V0H199.916V32H198.392ZM204.49 32V0H209.064V32H204.49ZM210.589 32V0H212.113V32H210.589ZM213.638 32V0H218.212V32H213.638Z" fill="#18181A"/>
<path d="M170.925 32V0H175.499V32H170.925ZM177.023 32V0H178.548V32H177.023ZM183.122 32V0H184.646V32H183.122ZM186.171 32V0H190.745V32H186.171ZM192.269 32V0H193.794V32H192.269Z" fill="#18181A"/>
<path d="M146.507 32V0H148.032V32H146.507ZM149.556 32V0H151.081V32H149.556ZM155.655 32V0H160.229V32H155.655ZM161.753 32V0H166.327V32H161.753ZM167.852 32V0H169.376V32H167.852Z" fill="#18181A"/>
<path d="M122.089 32V0H126.663V32H122.089ZM128.188 32V0H129.712V32H128.188ZM134.286 32V0H135.811V32H134.286ZM137.335 32V0H141.909V32H137.335ZM143.434 32V0H144.958V32H143.434Z" fill="#18181A"/>
<path d="M97.6713 32V0H99.1959V32H97.6713ZM100.721 32V0H105.294V32H100.721ZM109.868 32V0H111.393V32H109.868ZM112.918 32V0H117.491V32H112.918ZM119.016 32V0H120.541V32H119.016Z" fill="#18181A"/>
<path d="M73.2535 32V0H77.8273V32H73.2535ZM79.352 32V0H83.9258V32H79.352ZM88.4997 32V0H90.0243V32H88.4997ZM91.549 32V0H93.0736V32H91.549ZM94.5982 32V0H96.1228V32H94.5982Z" fill="#18181A"/>
<path d="M48.8356 32V0H50.3603V32H48.8356ZM51.8849 32V0H56.4588V32H51.8849ZM61.0326 32V0H62.5573V32H61.0326ZM64.0819 32V0H68.6558V32H64.0819ZM70.1804 32V0H71.705V32H70.1804Z" fill="#18181A"/>
<path d="M24.4178 32V0H25.9424V32H24.4178ZM30.5163 32V0H32.0409V32H30.5163ZM33.5656 32V0H38.1394V32H33.5656ZM39.6641 32V0H41.1887V32H39.6641ZM42.7133 32V0H47.2872V32H42.7133Z" fill="#18181A"/>
<path d="M0 32V0H1.52462V32H0ZM3.04925 32V0H4.57387V32H3.04925ZM9.14775 32V0H13.7216V32H9.14775ZM15.2462 32V0H19.8201V32H15.2462ZM21.3447 32V0H22.8694V32H21.3447Z" fill="#18181A"/>
</svg>
